<svg xmlns="http://www.w3.org/2000/svg" width="840" height="300" font-family="-apple-system,BlinkMacSystemFont,&quot;Segoe UI&quot;,Helvetica,Arial,sans-serif" font-size="16"><g text-anchor="end" font-weight="500" fill="#fff"><text alignment-baseline="central" x="192" y="68" dx="-10">markdown-wasm-rs</text><text alignment-baseline="central" x="192" y="104" dx="-10">markdown-wasm</text><text alignment-baseline="central" x="192" y="140" dx="-10">markdown-it</text><text alignment-baseline="central" x="192" y="176" dx="-10">commonmark</text><text alignment-baseline="central" x="192" y="212" dx="-10">marked</text><text alignment-baseline="central" x="192" y="248" dx="-10">showdown</text></g><path fill="#4e79a7" d="M192 52h632v32H192z"/><path fill="#f28e2c" d="M192 88h374.025v32H192z"/><path fill="#e15759" d="M192 124h120.683v32H192z"/><path fill="#59a14f" d="M192 160h98.056v32H192z"/><path fill="#76b7b2" d="M192 196h83.975v32H192z"/><path fill="#edc949" d="M192 232h13.585v32H192z"/><g fill="#fff" text-anchor="end" font-weight="500"><text x="824" y="68" alignment-baseline="central" dx="-5">130MB/s</text><text x="566.025" y="104" alignment-baseline="central" dx="-5">77MB/s</text><text x="312.683" y="140" alignment-baseline="central" dx="-5">25MB/s</text><text x="290.056" y="176" alignment-baseline="central" dx="-5">20MB/s</text><text x="275.975" y="212" alignment-baseline="central" dx="-5">17MB/s</text><text x="205.585" y="248" alignment-baseline="central" dx="5" text-anchor="start">3MB/s</text></g><g fill="none" font-size="12.8" text-anchor="middle" opacity=".5"><g class="tick"><path stroke="currentColor" d="M192.5 48v-6"/><text fill="currentColor" y="-9" dy="0em" transform="translate(192.5 48)">0</text></g><g class="tick"><path stroke="currentColor" d="M241.284 48v-6"/><text fill="currentColor" y="-9" dy="0em" transform="translate(241.284 48)">10</text></g><g class="tick"><path stroke="currentColor" d="M290.068 48v-6"/><text fill="currentColor" y="-9" dy="0em" transform="translate(290.068 48)">20</text></g><g class="tick"><path stroke="currentColor" d="M338.852 48v-6"/><text fill="currentColor" y="-9" dy="0em" transform="translate(338.852 48)">30</text></g><g class="tick"><path stroke="currentColor" d="M387.636 48v-6"/><text fill="currentColor" y="-9" dy="0em" transform="translate(387.636 48)">40</text></g><g class="tick"><path stroke="currentColor" d="M436.42 48v-6"/><text fill="currentColor" y="-9" dy="0em" transform="translate(436.42 48)">50</text></g><g class="tick"><path stroke="currentColor" d="M485.205 48v-6"/><text fill="currentColor" y="-9" dy="0em" transform="translate(485.205 48)">60</text></g><g class="tick"><path stroke="currentColor" d="M533.989 48v-6"/><text fill="currentColor" y="-9" dy="0em" transform="translate(533.989 48)">70</text></g><g class="tick"><path stroke="currentColor" d="M582.773 48v-6"/><text fill="currentColor" y="-9" dy="0em" transform="translate(582.773 48)">80</text></g><g class="tick"><path stroke="currentColor" d="M631.557 48v-6"/><text fill="currentColor" y="-9" dy="0em" transform="translate(631.557 48)">90</text></g><g class="tick"><path stroke="currentColor" d="M680.341 48v-6"/><text fill="currentColor" y="-9" dy="0em" transform="translate(680.341 48)">100</text></g><g class="tick"><path stroke="currentColor" d="M729.125 48v-6"/><text fill="currentColor" y="-9" dy="0em" transform="translate(729.125 48)">110</text></g><g class="tick"><path stroke="currentColor" d="M777.91 48v-6"/><text fill="currentColor" y="-9" dy="0em" transform="translate(777.91 48)">120</text></g></g></svg>