<svg xmlns="http://www.w3.org/2000/svg" width="840" height="300" font-family="-apple-system,BlinkMacSystemFont,&quot;Segoe UI&quot;,Helvetica,Arial,sans-serif" font-size="16"><g text-anchor="end" font-weight="500" fill="#fff"><text alignment-baseline="central" x="192" y="68" dx="-10">markdown-wasm-rs</text><text alignment-baseline="central" x="192" y="104" dx="-10">markdown-wasm</text><text alignment-baseline="central" x="192" y="140" dx="-10">markdown-it</text><text alignment-baseline="central" x="192" y="176" dx="-10">marked</text><text alignment-baseline="central" x="192" y="212" dx="-10">commonmark</text><text alignment-baseline="central" x="192" y="248" dx="-10">showdown</text></g><path fill="#4e79a7" d="M192 52h632v32H192z"/><path fill="#f28e2c" d="M192 88h386.683v32H192z"/><path fill="#e15759" d="M192 124h143.978v32H192z"/><path fill="#76b7b2" d="M192 160h102.628v32H192z"/><path fill="#59a14f" d="M192 196h98.007v32H192z"/><path fill="#edc949" d="M192 232h14.285v32H192z"/><g fill="#fff" text-anchor="end" font-weight="500"><text x="824" y="68" alignment-baseline="central" dx="-5">476,497</text><text x="578.683" y="104" alignment-baseline="central" dx="-5">291,540</text><text x="335.978" y="140" alignment-baseline="central" dx="-5">108,552</text><text x="294.628" y="176" alignment-baseline="central" dx="-5">77,376</text><text x="290.007" y="212" alignment-baseline="central" dx="-5">73,892</text><text x="206.285" y="248" alignment-baseline="central" dx="5" text-anchor="start">10,770</text></g><g fill="none" font-size="12.8" text-anchor="middle" opacity=".5"><g class="tick"><path stroke="currentColor" d="M192.5 48v-6"/><text fill="currentColor" y="-9" dy="0em" transform="translate(192.5 48)">0</text></g><g class="tick"><path stroke="currentColor" d="M258.817 48v-6"/><text fill="currentColor" y="-9" dy="0em" transform="translate(258.817 48)">50,000</text></g><g class="tick"><path stroke="currentColor" d="M325.135 48v-6"/><text fill="currentColor" y="-9" dy="0em" transform="translate(325.135 48)">100,000</text></g><g class="tick"><path stroke="currentColor" d="M391.452 48v-6"/><text fill="currentColor" y="-9" dy="0em" transform="translate(391.452 48)">150,000</text></g><g class="tick"><path stroke="currentColor" d="M457.77 48v-6"/><text fill="currentColor" y="-9" dy="0em" transform="translate(457.77 48)">200,000</text></g><g class="tick"><path stroke="currentColor" d="M524.087 48v-6"/><text fill="currentColor" y="-9" dy="0em" transform="translate(524.087 48)">250,000</text></g><g class="tick"><path stroke="currentColor" d="M590.404 48v-6"/><text fill="currentColor" y="-9" dy="0em" transform="translate(590.404 48)">300,000</text></g><g class="tick"><path stroke="currentColor" d="M656.721 48v-6"/><text fill="currentColor" y="-9" dy="0em" transform="translate(656.721 48)">350,000</text></g><g class="tick"><path stroke="currentColor" d="M723.039 48v-6"/><text fill="currentColor" y="-9" dy="0em" transform="translate(723.039 48)">400,000</text></g><g class="tick"><path stroke="currentColor" d="M789.356 48v-6"/><text fill="currentColor" y="-9" dy="0em" transform="translate(789.356 48)">450,000</text></g></g></svg>