<svg xmlns="http://www.w3.org/2000/svg" width="840" height="300" font-family="-apple-system,BlinkMacSystemFont,&quot;Segoe UI&quot;,Helvetica,Arial,sans-serif" font-size="16"><path fill="#f28e2c" d="M44 52h472v32H44z"/><path fill="#4e79a7" d="M16 88h506v32H16z"/><path fill="#e15759" d="M62 124h545v32H62z"/><path fill="#76b7b2" d="M88 160h535v32H88z"/><path fill="#59a14f" d="M103 196h524v32H103z"/><path fill="#edc949" d="M263 232h561v32H263z"/><g fill="#fff" font-weight="500" text-anchor="middle"><text x="280" y="68" alignment-baseline="central">markdown-wasm</text><text x="269" y="104" alignment-baseline="central">markdown-wasm-rs</text><text x="334.5" y="140" alignment-baseline="central">markdown-it</text><text x="355.5" y="176" alignment-baseline="central">marked</text><text x="365" y="212" alignment-baseline="central">commonmark</text><text x="543.5" y="248" alignment-baseline="central">showdown</text></g><g fill="#fff" font-weight="500"><text x="44" y="68" alignment-baseline="central" dx="5">1.2us</text><text x="16" y="104" alignment-baseline="central" dx="5">775ns</text><text x="62" y="140" alignment-baseline="central" dx="5">1.6us</text><text x="88" y="176" alignment-baseline="central" dx="5">2.3us</text><text x="103" y="212" alignment-baseline="central" dx="5">2.9us</text><text x="263" y="248" alignment-baseline="central" dx="5">33.3us</text></g><g fill="#fff" font-weight="500" text-anchor="end"><text x="516" y="68" alignment-baseline="central" dx="-5">1.6ms</text><text x="522" y="104" alignment-baseline="central" dx="-5">1.7ms</text><text x="607" y="140" alignment-baseline="central" dx="-5">6.3ms</text><text x="623" y="176" alignment-baseline="central" dx="-5">8.1ms</text><text x="627" y="212" alignment-baseline="central" dx="-5">8.5ms</text><text x="824" y="248" alignment-baseline="central" dx="-5">172.7ms</text></g><g fill="none" font-size="12.8" text-anchor="middle" opacity=".5"><path stroke="currentColor" d="M18.5 48v-6M26.5 48v-6"/><g class="tick"><path stroke="currentColor" d="M33.5 48v-6"/><text fill="currentColor" y="-9" dy="0em" transform="translate(33.5 48)">1000ns</text></g><path stroke="currentColor" d="M78.5 48v-6M105.5 48v-6M124.5 48v-6M138.5 48v-6M150.5 48v-6M160.5 48v-6M169.5 48v-6M177.5 48v-6"/><g class="tick"><path stroke="currentColor" d="M184.5 48v-6"/><text fill="currentColor" y="-9" dy="0em" transform="translate(184.5 48)">10.0us</text></g><path stroke="currentColor" d="M229.5 48v-6M256.5 48v-6M275.5 48v-6M289.5 48v-6M301.5 48v-6M312.5 48v-6M320.5 48v-6M328.5 48v-6"/><g class="tick"><path stroke="currentColor" d="M335.5 48v-6"/><text fill="currentColor" y="-9" dy="0em" transform="translate(335.5 48)">100.0us</text></g><path stroke="currentColor" d="M380.5 48v-6M407.5 48v-6M426.5 48v-6M441.5 48v-6M452.5 48v-6M463.5 48v-6M471.5 48v-6M479.5 48v-6"/><g class="tick"><path stroke="currentColor" d="M486.5 48v-6"/><text fill="currentColor" y="-9" dy="0em" transform="translate(486.5 48)">1000.0us</text></g><path stroke="currentColor" d="M531.5 48v-6M558.5 48v-6M577.5 48v-6M592.5 48v-6M604.5 48v-6M614.5 48v-6M622.5 48v-6M630.5 48v-6"/><g class="tick"><path stroke="currentColor" d="M637.5 48v-6"/><text fill="currentColor" y="-9" dy="0em" transform="translate(637.5 48)">10.0ms</text></g><path stroke="currentColor" d="M683.5 48v-6M709.5 48v-6M728.5 48v-6M743.5 48v-6M755.5 48v-6M765.5 48v-6M774.5 48v-6M781.5 48v-6"/><g class="tick"><path stroke="currentColor" d="M788.5 48v-6"/><text fill="currentColor" y="-9" dy="0em" transform="translate(788.5 48)">100.0ms</text></g></g></svg>